<mxfile host="app.diagrams.net" agent="Mozilla/5.0 (Windows NT 10.0; Win64; x64) AppleWebKit/537.36 (KHTML, like Gecko) Chrome/139.0.0.0 Safari/537.36" version="28.2.0">
  <diagram name="Page-1" id="o4guxWHSn06bFM2L0lij">
    <mxGraphModel dx="1042" dy="562" grid="1" gridSize="14" guides="1" tooltips="1" connect="1" arrows="1" fold="1" page="1" pageScale="1" pageWidth="850" pageHeight="1100" math="0" shadow="0">
      <root>
        <mxCell id="0" />
        <mxCell id="1" parent="0" />
        <mxCell id="D-zvg6atjms5ueYGad8O-50" value="" style="edgeStyle=orthogonalEdgeStyle;rounded=0;orthogonalLoop=1;jettySize=auto;html=1;strokeColor=#E07A5F;fontColor=#393C56;fillColor=#F2CC8F;" edge="1" parent="1" source="D-zvg6atjms5ueYGad8O-14" target="D-zvg6atjms5ueYGad8O-23">
          <mxGeometry relative="1" as="geometry" />
        </mxCell>
        <mxCell id="D-zvg6atjms5ueYGad8O-14" value="User open apps" style="ellipse;whiteSpace=wrap;html=1;labelBackgroundColor=none;fillColor=#F2CC8F;strokeColor=#E07A5F;fontColor=#393C56;fontSize=14;" vertex="1" parent="1">
          <mxGeometry x="341" y="14" width="84" height="70" as="geometry" />
        </mxCell>
        <mxCell id="D-zvg6atjms5ueYGad8O-51" style="edgeStyle=orthogonalEdgeStyle;rounded=0;orthogonalLoop=1;jettySize=auto;html=1;entryX=0.5;entryY=0;entryDx=0;entryDy=0;strokeColor=#E07A5F;fontColor=#393C56;fillColor=#F2CC8F;" edge="1" parent="1" source="D-zvg6atjms5ueYGad8O-23" target="D-zvg6atjms5ueYGad8O-24">
          <mxGeometry relative="1" as="geometry" />
        </mxCell>
        <mxCell id="D-zvg6atjms5ueYGad8O-23" value="Enter phone&amp;nbsp;&lt;div&gt;number&lt;/div&gt;" style="shape=parallelogram;perimeter=parallelogramPerimeter;whiteSpace=wrap;html=1;fixedSize=1;fontSize=14;labelBackgroundColor=none;fillColor=#F2CC8F;strokeColor=#E07A5F;fontColor=#393C56;" vertex="1" parent="1">
          <mxGeometry x="327" y="112" width="112" height="56" as="geometry" />
        </mxCell>
        <mxCell id="D-zvg6atjms5ueYGad8O-52" style="edgeStyle=orthogonalEdgeStyle;rounded=0;orthogonalLoop=1;jettySize=auto;html=1;entryX=0.5;entryY=0;entryDx=0;entryDy=0;strokeColor=#E07A5F;fontColor=#393C56;fillColor=#F2CC8F;" edge="1" parent="1" source="D-zvg6atjms5ueYGad8O-24" target="D-zvg6atjms5ueYGad8O-25">
          <mxGeometry relative="1" as="geometry" />
        </mxCell>
        <mxCell id="D-zvg6atjms5ueYGad8O-24" value="Verify otp" style="rhombus;whiteSpace=wrap;html=1;labelBackgroundColor=none;fillColor=#F2CC8F;strokeColor=#E07A5F;fontColor=#393C56;fontSize=14;" vertex="1" parent="1">
          <mxGeometry x="343" y="210" width="80" height="80" as="geometry" />
        </mxCell>
        <mxCell id="D-zvg6atjms5ueYGad8O-53" style="edgeStyle=orthogonalEdgeStyle;rounded=0;orthogonalLoop=1;jettySize=auto;html=1;exitX=0.5;exitY=1;exitDx=0;exitDy=0;entryX=0.5;entryY=0;entryDx=0;entryDy=0;strokeColor=#E07A5F;fontColor=#393C56;fillColor=#F2CC8F;" edge="1" parent="1" source="D-zvg6atjms5ueYGad8O-25" target="D-zvg6atjms5ueYGad8O-26">
          <mxGeometry relative="1" as="geometry" />
        </mxCell>
        <mxCell id="D-zvg6atjms5ueYGad8O-25" value="Enter adderss" style="shape=parallelogram;perimeter=parallelogramPerimeter;whiteSpace=wrap;html=1;fixedSize=1;labelBackgroundColor=none;fillColor=#F2CC8F;strokeColor=#E07A5F;fontColor=#393C56;fontSize=14;" vertex="1" parent="1">
          <mxGeometry x="323" y="336" width="120" height="60" as="geometry" />
        </mxCell>
        <mxCell id="D-zvg6atjms5ueYGad8O-54" style="edgeStyle=orthogonalEdgeStyle;rounded=0;orthogonalLoop=1;jettySize=auto;html=1;entryX=0.5;entryY=0;entryDx=0;entryDy=0;strokeColor=#E07A5F;fontColor=#393C56;fillColor=#F2CC8F;" edge="1" parent="1" source="D-zvg6atjms5ueYGad8O-26" target="D-zvg6atjms5ueYGad8O-27">
          <mxGeometry relative="1" as="geometry" />
        </mxCell>
        <mxCell id="D-zvg6atjms5ueYGad8O-26" value="Show near by restautrants" style="rounded=0;whiteSpace=wrap;html=1;labelBackgroundColor=none;fillColor=#F2CC8F;strokeColor=#E07A5F;fontColor=#393C56;fontSize=14;" vertex="1" parent="1">
          <mxGeometry x="308" y="434" width="140" height="60" as="geometry" />
        </mxCell>
        <mxCell id="D-zvg6atjms5ueYGad8O-27" value="Select restaurant" style="rounded=0;whiteSpace=wrap;html=1;labelBackgroundColor=none;fillColor=#F2CC8F;strokeColor=#E07A5F;fontColor=#393C56;fontSize=14;" vertex="1" parent="1">
          <mxGeometry x="308" y="532" width="140" height="60" as="geometry" />
        </mxCell>
        <mxCell id="D-zvg6atjms5ueYGad8O-28" value="show menu" style="rounded=0;whiteSpace=wrap;html=1;strokeColor=#E07A5F;fontColor=#393C56;fillColor=#F2CC8F;fontSize=14;labelBackgroundColor=none;" vertex="1" parent="1">
          <mxGeometry x="308" y="630" width="135" height="60" as="geometry" />
        </mxCell>
        <mxCell id="D-zvg6atjms5ueYGad8O-29" value="Add to cart" style="rounded=0;whiteSpace=wrap;html=1;strokeColor=#E07A5F;fontColor=#393C56;fillColor=#F2CC8F;fontSize=15;labelBackgroundColor=none;" vertex="1" parent="1">
          <mxGeometry x="308" y="728" width="140" height="60" as="geometry" />
        </mxCell>
        <mxCell id="D-zvg6atjms5ueYGad8O-30" value="Choose payment" style="rhombus;whiteSpace=wrap;html=1;strokeColor=#E07A5F;fontColor=#393C56;fillColor=#F2CC8F;labelBackgroundColor=none;fontSize=16;" vertex="1" parent="1">
          <mxGeometry x="322" y="826" width="112" height="80" as="geometry" />
        </mxCell>
        <mxCell id="D-zvg6atjms5ueYGad8O-31" value="Cash on delivery" style="shape=parallelogram;perimeter=parallelogramPerimeter;whiteSpace=wrap;html=1;fixedSize=1;strokeColor=#E07A5F;fontColor=#393C56;fillColor=#F2CC8F;labelBackgroundColor=none;fontSize=18;" vertex="1" parent="1">
          <mxGeometry x="168" y="938" width="120" height="60" as="geometry" />
        </mxCell>
        <mxCell id="D-zvg6atjms5ueYGad8O-36" value="" style="endArrow=classic;html=1;rounded=0;strokeColor=#E07A5F;fontColor=default;fillColor=#F2CC8F;entryX=0.317;entryY=0;entryDx=0;entryDy=0;entryPerimeter=0;labelBackgroundColor=none;" edge="1" parent="1">
          <mxGeometry width="50" height="50" relative="1" as="geometry">
            <mxPoint x="418" y="876" as="sourcePoint" />
            <mxPoint x="476.03999999999996" y="938" as="targetPoint" />
          </mxGeometry>
        </mxCell>
        <mxCell id="D-zvg6atjms5ueYGad8O-38" value="" style="endArrow=classic;html=1;rounded=0;strokeColor=#E07A5F;fontColor=default;fillColor=#F2CC8F;exitX=0.107;exitY=0.667;exitDx=0;exitDy=0;exitPerimeter=0;labelBackgroundColor=none;" edge="1" parent="1" source="D-zvg6atjms5ueYGad8O-30">
          <mxGeometry width="50" height="50" relative="1" as="geometry">
            <mxPoint x="308" y="882" as="sourcePoint" />
            <mxPoint x="266" y="938" as="targetPoint" />
          </mxGeometry>
        </mxCell>
        <mxCell id="D-zvg6atjms5ueYGad8O-41" value="place order" style="rounded=0;whiteSpace=wrap;html=1;strokeColor=#E07A5F;fontColor=#393C56;fillColor=#F2CC8F;labelBackgroundColor=none;fontSize=17;" vertex="1" parent="1">
          <mxGeometry x="308" y="1050" width="109.5" height="56" as="geometry" />
        </mxCell>
        <mxCell id="D-zvg6atjms5ueYGad8O-42" value="order confirmed" style="ellipse;whiteSpace=wrap;html=1;strokeColor=#E07A5F;fontColor=#393C56;fillColor=#F2CC8F;labelBackgroundColor=none;fontSize=18;" vertex="1" parent="1">
          <mxGeometry x="305" y="1162" width="120" height="80" as="geometry" />
        </mxCell>
        <mxCell id="D-zvg6atjms5ueYGad8O-43" style="edgeStyle=orthogonalEdgeStyle;rounded=0;orthogonalLoop=1;jettySize=auto;html=1;exitX=1;exitY=0.5;exitDx=0;exitDy=0;entryX=0.968;entryY=0.417;entryDx=0;entryDy=0;entryPerimeter=0;strokeColor=#E07A5F;fontColor=default;fillColor=#F2CC8F;labelBackgroundColor=none;" edge="1" parent="1" source="D-zvg6atjms5ueYGad8O-42" target="D-zvg6atjms5ueYGad8O-42">
          <mxGeometry relative="1" as="geometry" />
        </mxCell>
        <mxCell id="D-zvg6atjms5ueYGad8O-46" value="" style="endArrow=classic;html=1;rounded=0;strokeColor=#E07A5F;fontColor=default;fillColor=#F2CC8F;exitX=0.25;exitY=1;exitDx=0;exitDy=0;entryX=1;entryY=0;entryDx=0;entryDy=0;labelBackgroundColor=none;" edge="1" parent="1" target="D-zvg6atjms5ueYGad8O-41">
          <mxGeometry width="50" height="50" relative="1" as="geometry">
            <mxPoint x="468" y="998" as="sourcePoint" />
            <mxPoint x="456" y="1148" as="targetPoint" />
          </mxGeometry>
        </mxCell>
        <mxCell id="D-zvg6atjms5ueYGad8O-47" value="" style="endArrow=classic;html=1;rounded=0;strokeColor=#E07A5F;fontColor=default;fillColor=#F2CC8F;entryX=0;entryY=0;entryDx=0;entryDy=0;exitX=0.603;exitY=1.01;exitDx=0;exitDy=0;exitPerimeter=0;labelBackgroundColor=none;" edge="1" parent="1" source="D-zvg6atjms5ueYGad8O-31" target="D-zvg6atjms5ueYGad8O-41">
          <mxGeometry width="50" height="50" relative="1" as="geometry">
            <mxPoint x="238" y="1008" as="sourcePoint" />
            <mxPoint x="294" y="1134" as="targetPoint" />
          </mxGeometry>
        </mxCell>
        <mxCell id="D-zvg6atjms5ueYGad8O-48" value="" style="endArrow=classic;html=1;rounded=0;strokeColor=#E07A5F;fontColor=default;fillColor=#F2CC8F;entryX=0.5;entryY=0;entryDx=0;entryDy=0;labelBackgroundColor=none;" edge="1" parent="1" target="D-zvg6atjms5ueYGad8O-42">
          <mxGeometry width="50" height="50" relative="1" as="geometry">
            <mxPoint x="365" y="1106" as="sourcePoint" />
            <mxPoint x="378" y="1148" as="targetPoint" />
          </mxGeometry>
        </mxCell>
        <mxCell id="D-zvg6atjms5ueYGad8O-49" value="UPI payment" style="shape=parallelogram;perimeter=parallelogramPerimeter;whiteSpace=wrap;html=1;fixedSize=1;strokeColor=#E07A5F;fontColor=#393C56;fillColor=#F2CC8F;fontSize=16;" vertex="1" parent="1">
          <mxGeometry x="448" y="938" width="120" height="60" as="geometry" />
        </mxCell>
        <mxCell id="D-zvg6atjms5ueYGad8O-55" style="edgeStyle=orthogonalEdgeStyle;rounded=0;orthogonalLoop=1;jettySize=auto;html=1;entryX=0.596;entryY=-0.043;entryDx=0;entryDy=0;entryPerimeter=0;strokeColor=#E07A5F;fontColor=#393C56;fillColor=#F2CC8F;" edge="1" parent="1" source="D-zvg6atjms5ueYGad8O-27" target="D-zvg6atjms5ueYGad8O-28">
          <mxGeometry relative="1" as="geometry" />
        </mxCell>
      </root>
    </mxGraphModel>
  </diagram>
</mxfile>
